<?xml version="1.0" encoding="UTF-8"?><svg id="Layer_2" xmlns="http://www.w3.org/2000/svg" xmlns:xlink="http://www.w3.org/1999/xlink" viewBox="0 0 54.24 21.04"><defs><style>.cls-1{fill:url(#linear-gradient-2);}.cls-2{fill:url(#linear-gradient-10);}.cls-3{fill:url(#linear-gradient-12);}.cls-4{fill:url(#linear-gradient-4);}.cls-5{fill:url(#linear-gradient-3);}.cls-6{fill:url(#linear-gradient-5);}.cls-7{fill:url(#linear-gradient-8);}.cls-8{fill:url(#linear-gradient-7);}.cls-9{fill:url(#linear-gradient-9);}.cls-10{fill:url(#linear-gradient-11);}.cls-11{fill:url(#linear-gradient-6);}.cls-12{fill:url(#linear-gradient);}</style><linearGradient id="linear-gradient" x1="-1.55" y1="10.52" x2="57.51" y2="10.52" gradientUnits="userSpaceOnUse"><stop offset="0" stop-color="#d8caa5"/><stop offset="1" stop-color="#aa9050"/></linearGradient><linearGradient id="linear-gradient-2" y1="10.62" x2="57.51" y2="10.62" xlink:href="#linear-gradient"/><linearGradient id="linear-gradient-3" y1="10.51" y2="10.51" xlink:href="#linear-gradient"/><linearGradient id="linear-gradient-4" y1="10.52" y2="10.52" gradientTransform="translate(85.09 21.04) rotate(180)" xlink:href="#linear-gradient"/><linearGradient id="linear-gradient-5" y1="10.62" y2="10.62" gradientTransform="translate(93.9 21.24) rotate(-180)" xlink:href="#linear-gradient"/><linearGradient id="linear-gradient-6" y1="10.51" x2="57.51" y2="10.51" gradientTransform="translate(77.3 21.02) rotate(180)" xlink:href="#linear-gradient"/><linearGradient id="linear-gradient-7" y1="14.71" y2="14.71" xlink:href="#linear-gradient"/><linearGradient id="linear-gradient-8" y1="6.67" y2="6.67" xlink:href="#linear-gradient"/><linearGradient id="linear-gradient-9" y1="9.31" y2="9.31" xlink:href="#linear-gradient"/><linearGradient id="linear-gradient-10" y1="9.46" y2="9.46" xlink:href="#linear-gradient"/><linearGradient id="linear-gradient-11" y1="10.44" y2="10.44" xlink:href="#linear-gradient"/><linearGradient id="linear-gradient-12" y1="10.51" y2="10.51" xlink:href="#linear-gradient"/></defs><g id="Layer_2-2"><rect class="cls-12" x="9.62" y="0" width="4.14" height="21.04" rx="2.07" ry="2.07"/><rect class="cls-1" x="5.61" y="2.85" width="3.35" height="15.55" rx="1.68" ry="1.68"/><path class="cls-5" d="M13.76,8.85h2.91c.41,0,.74.33.74.74v1.89c0,.38-.31.69-.69.69h-2.96v-3.31h0Z"/><rect class="cls-4" x="40.48" y="0" width="4.14" height="21.04" rx="2.07" ry="2.07" transform="translate(85.09 21.04) rotate(-180)"/><rect class="cls-6" x="45.27" y="2.85" width="3.35" height="15.55" rx="1.68" ry="1.68" transform="translate(93.9 21.24) rotate(180)"/><path class="cls-11" d="M36.83,8.85h2.96c.38,0,.69.31.69.69v1.89c0,.41-.33.74-.74.74h-2.91v-3.31h0Z" transform="translate(77.3 21.02) rotate(-180)"/><path class="cls-8" d="M16.78,13.59v.52l2,2.93h.81l2.24-.5h3.41c1.4-.05,2.21-.64,2.22-1.98-.02-.99-.69-1.64-1.58-2.17h-7.48s-1.63,1.21-1.63,1.21Z"/><path class="cls-7" d="M24.89,1.81c-1.18,0-2.14.96-2.14,2.14v6.52l-.3.07-.28-.05s0-.01,0-.02v-4.56c0-1.02-.83-1.85-1.85-1.85h-.29c-1.05,0-1.91.85-1.91,1.91v4.86c0,.3.24.54.54.54h2.61c.36,0,.67-.22.81-.53l.39-.06.27.06v.05c0,.36.29.65.65.65h2.82c.39,0,.71-.32.71-.71V3.85c0-1.12-.91-2.04-2.04-2.04Z"/><rect class="cls-9" x="27.46" y="4.06" width="4.03" height="10.5" rx="2.02" ry="2.02"/><rect class="cls-2" x="32.13" y="5.01" width="4.07" height="8.91" rx="2.04" ry="2.04"/><rect class="cls-10" y="8.85" width="8.96" height="3.17"/><rect class="cls-3" x="45.27" y="8.85" width="8.96" height="3.31"/></g></svg>